<svg xmlns="http://www.w3.org/2000/svg" fill="none" viewBox="0 0 24 24" color="#0077c5" width="20px" height="20px" focusable="false" aria-hidden="true" class=""><path fill="currentColor" d="M12 8a4 4 0 1 0 0 8 4 4 0 0 0 0-8m0 6a2 2 0 1 1 0-4 2 2 0 0 1 0 4"></path><path fill="currentColor" d="M21.944 11.672A10.349 10.349 0 0 0 12 5a10.349 10.349 0 0 0-9.944 6.672.984.984 0 0 0 0 .656A10.349 10.349 0 0 0 12 19a10.35 10.35 0 0 0 9.944-6.672.984.984 0 0 0 0-.656M12 17a8.4 8.4 0 0 1-7.933-5A8.4 8.4 0 0 1 12 7a8.4 8.4 0 0 1 7.933 5A8.4 8.4 0 0 1 12 17"></path></svg>