<svg xmlns="http://www.w3.org/2000/svg" fill="#ffffff" viewBox="0 0 24 24" color="#ffffff" width="24px" height="24px" focusable="false" aria-hidden="true"><path fill="currentColor" d="M17 10V7a5 5 0 0 0-5-5 5.006 5.006 0 0 0-5 5v3a3 3 0 0 0-3 3v6a3 3 0 0 0 3 3h10a3 3 0 0 0 3-3v-6a3 3 0 0 0-3-3M9 7a3 3 0 0 1 3-3 3 3 0 0 1 3 3v3H9zm9 12a1 1 0 0 1-1 1H7a1 1 0 0 1-1-1v-6a1 1 0 0 1 1-1h10a1 1 0 0 1 1 1z"></path><path fill="currentColor" d="M12 13a1.994 1.994 0 0 0-1 3.722V18a1 1 0 1 0 2 0v-1.282A1.994 1.994 0 0 0 12 13"></path></svg>